# xmcd
#
# Track frame offsets:
#	150
#	19174
#	36855
#	55267
#	75413
#	90276
#	109058
#	128143
#	145830
#	164478
#	184528
#	199392
#
# Disc length: 2911 seconds
#
# Revision: 1
# Processed by: cddbd v1.5.2PL0 Copyright (c) Steve Scherf et al.
# Submitted via: audiograbber 1.83.01
#
DISCID=980b5d0c
DTITLE=Karaoke Country Hot Hits - Country Chartbusters Vol.206
DYEAR=1900
DGENRE=Karaoke
TTITLE0=Louisiana Hot Sauce (Guide Vocals)
TTITLE1=The Little Girl (Guide Vocals)
TTITLE2=Swimming in Champagne (Guide Vocals)
TTITLE3=Georgia (Guide Vocals)
TTITLE4=Lost in the Feeling (Guide Vocals)
TTITLE5=Too Much to Lose (Guide Vocals)
TTITLE6=Louisiana Hot Sauce (Performance Tracks)
TTITLE7=The Little Girl (Performance Tracks)
TTITLE8=Swimmin in Champagne (Performance Tracks)
TTITLE9=Georgia (Performance Tracks)
TTITLE10=Lost in the Feeling (Performance Tracks)
TTITLE11=Too Much to Lose (Performance Tracks)
EXTD=
EXTT0=
EXTT1=
EXTT2=
EXTT3=
EXTT4=
EXTT5=
EXTT6=
EXTT7=
EXTT8=
EXTT9=
EXTT10=
EXTT11=
PLAYORDER=
